<svg id="Capa_1" enable-background="new 0 0 512 512" height="512" viewBox="0 0 512 512" width="512" xmlns="http://www.w3.org/2000/svg" xmlns:xlink="http://www.w3.org/1999/xlink"><linearGradient id="SVGID_1_" gradientUnits="userSpaceOnUse" x1="98" x2="98" y1="68" y2="248"><stop offset=".00000083866" stop-color="#96d1f3"/><stop offset="1" stop-color="#ccfff4"/></linearGradient><linearGradient id="SVGID_2_" gradientUnits="userSpaceOnUse" x1="369" x2="369" y1="8" y2="262"><stop offset=".00000036422" stop-color="#a8abff"/><stop offset="1" stop-color="#fac8ff"/></linearGradient><linearGradient id="Outline_1_" gradientUnits="userSpaceOnUse" x1="256" x2="256" y1=".5" y2="511.5"><stop offset=".00000011981" stop-color="#174fa3"/><stop offset="1" stop-color="#b044af"/></linearGradient><g><g id="Filled_43_"><path d="m476 504h-440v-70c0-16.569 13.431-30 30-30h380c16.569 0 30 13.431 30 30z" fill="#fff"/><path d="m8 248h180v60h-180z" fill="#fff"/><path d="m8 68h180v180h-180z" fill="url(#SVGID_1_)"/><path d="m8 8h180v60h-180z" fill="#fff"/><path d="m484 262h-230c-11.046 0-20-8.954-20-20v-214c0-11.046 8.954-20 20-20h230c11.046 0 20 8.954 20 20v214c0 11.046-8.954 20-20 20z" fill="url(#SVGID_2_)"/><g fill="#fff"><circle cx="372" cy="113" r="75"/><path d="m116.672 159.618c3.934-4.418 6.328-10.237 6.328-16.618v-10c0-13.807-11.193-25-25-25s-25 11.193-25 25v10c0 6.381 2.394 12.2 6.328 16.618-18.362 7.399-31.328 25.371-31.328 46.382v42h100v-42c0-21.011-12.966-38.983-31.328-46.382z"/></g></g><path id="Outline_43_" d="m483.5 496.5v-62.5c0-20.678-16.822-37.5-37.5-37.5h-380c-20.678 0-37.5 16.822-37.5 37.5v62.5h-28.5v15h512v-15zm-15 0h-425v-62.5c0-12.406 10.094-22.5 22.5-22.5h380c12.406 0 22.5 10.094 22.5 22.5zm-240-15h55v-55h-55zm15-40h25v25h-25zm-95 40h55v-55h-55zm15-40h25v25h-25zm-95 40h55v-55h-55zm15-40h25v25h-25zm225 40h55v-55h-55zm15-40h25v25h-25zm65 40h55v-55h-55zm15-40h25v25h-25zm-371.5-411h15v15h-15zm30 0h15v15h-15zm192 239h126.5v20.5c0 6.893-5.607 12.5-12.5 12.5h-90c-15.163 0-27.5 12.337-27.5 27.5v22h15v-22c0-6.893 5.607-12.5 12.5-12.5h90c15.163 0 27.5-12.337 27.5-27.5v-20.5h88.5c15.163 0 27.5-12.337 27.5-27.5v-214c0-15.163-12.337-27.5-27.5-27.5h-230c-15.163 0-27.5 12.337-27.5 27.5v214c0 15.163 12.337 27.5 27.5 27.5zm-12.5-241.5c0-6.893 5.607-12.5 12.5-12.5h230c6.893 0 12.5 5.607 12.5 12.5v214c0 6.893-5.607 12.5-12.5 12.5h-230c-6.893 0-12.5-5.607-12.5-12.5zm-151 324h15v-36.5h90v-315h-195v315h90zm-75-336.5h165v45h-165zm0 60h165v165h-25v-34.5c0-20.567-10.749-39.116-28.004-49.377 1.923-4.146 3.004-8.76 3.004-13.623v-10c0-17.921-14.579-32.5-32.5-32.5s-32.5 14.579-32.5 32.5v10c0 4.864 1.081 9.477 3.004 13.623-17.255 10.261-28.004 28.81-28.004 49.377v34.5h-25zm82.5 100c7.573 0 14.544-2.611 20.076-6.97 13.759 7.344 22.424 21.594 22.424 37.47v34.5h-85v-34.5c0-15.876 8.665-30.126 22.424-37.47 5.532 4.359 12.503 6.97 20.076 6.97zm-17.5-32.5v-10c0-9.649 7.851-17.5 17.5-17.5s17.5 7.851 17.5 17.5v10c0 9.649-7.851 17.5-17.5 17.5s-17.5-7.851-17.5-17.5zm-65 157.5v-45h25 115 25v45zm75 66.5h15v15h-15zm160 0h15v15h-15zm41-141.5h-32.5v-15h32.5v-15.5h15v15.5h172.5v15h-172.5v15.5h-15zm57-161.905v98.811l70.578-49.406zm15 28.81 29.422 20.595-29.422 20.595zm8.5 103.095c45.49 0 82.5-37.01 82.5-82.5s-37.01-82.5-82.5-82.5-82.5 37.01-82.5 82.5 37.01 82.5 82.5 82.5zm0-150c37.22 0 67.5 30.28 67.5 67.5s-30.28 67.5-67.5 67.5-67.5-30.28-67.5-67.5 30.28-67.5 67.5-67.5zm-311.5 225h15v15h-15zm60 0h15v15h-15zm-30 0h15v15h-15z" fill="url(#Outline_1_)"/></g></svg>