<svg id="Capa_1" enable-background="new 0 0 511 511" height="512" viewBox="0 0 511 511" width="512" xmlns="http://www.w3.org/2000/svg" xmlns:xlink="http://www.w3.org/1999/xlink"><linearGradient id="lg1"><stop offset=".00000083866" stop-color="#96d1f3"/><stop offset="1" stop-color="#ccfff4"/></linearGradient><linearGradient id="SVGID_1_" gradientUnits="userSpaceOnUse" x1="182.5" x2="182.5" xlink:href="#lg1" y1="301.5" y2="503.5"/><linearGradient id="SVGID_2_" gradientUnits="userSpaceOnUse" x1="308.5" x2="308.5" xlink:href="#lg1" y1="7.5" y2="209.5"/><linearGradient id="Outline_1_" gradientUnits="userSpaceOnUse" x1="255.5" x2="255.5" y1="0" y2="511"><stop offset=".00000011981" stop-color="#174fa3"/><stop offset="1" stop-color="#b044af"/></linearGradient><g><g id="Filled_36_"><path d="m7.5 331.5v142c0 16.569 13.431 30 30 30h310c16.569 0 30-13.431 30-30v-142c0-16.569-13.431-30-30-30h-310c-16.569 0-30 13.431-30 30z" fill="#fff"/><path d="m47.5 301.5h270v202h-270z" fill="url(#SVGID_1_)"/><path d="m133.5 37.5v142c0 16.569 13.431 30 30 30h310c16.569 0 30-13.431 30-30v-142c0-16.569-13.431-30-30-30h-310c-16.569 0-30 13.431-30 30z" fill="#fff"/><path d="m173.5 7.5h270v202h-270z" fill="url(#SVGID_2_)"/><g fill="#fff"><path d="m238.5 147.5h22v30l57-30h61c11.046 0 20-8.954 20-20v-70c0-11.046-8.954-20-20-20h-140c-11.046 0-20 8.954-20 20v70c0 11.046 8.954 20 20 20z"/><path d="m254.49 377.5h-20.99v-12c0-17.673-14.327-32-32-32l-13 44h-32v-16h-60v112h60v-16h17l18 10h42.918c13.825 0 25.859-9.447 29.142-22.876l10.358-42.375c3.08-12.597-6.459-24.749-19.428-24.749z"/></g></g><path id="Outline_36_" d="m347.5 294h-310c-20.678 0-37.5 16.822-37.5 37.5v142c0 20.678 16.822 37.5 37.5 37.5h310c20.678 0 37.5-16.822 37.5-37.5v-142c0-20.678-16.822-37.5-37.5-37.5zm-307.5 202h-2.5c-12.407 0-22.5-10.094-22.5-22.5v-142c0-12.406 10.093-22.5 22.5-22.5h2.5zm270 0h-255v-187h255zm60-22.5c0 12.406-10.093 22.5-22.5 22.5h-22.5v-187h22.5c12.407 0 22.5 10.094 22.5 22.5zm-30-78.5h15v15h-15zm133.5-395h-310c-20.678 0-37.5 16.822-37.5 37.5v142c0 20.678 16.822 37.5 37.5 37.5h310c20.678 0 37.5-16.822 37.5-37.5v-142c0-20.678-16.822-37.5-37.5-37.5zm-307.5 202h-2.5c-12.407 0-22.5-10.094-22.5-22.5v-142c0-12.406 10.093-22.5 22.5-22.5h2.5zm270 0h-255v-187h255zm60-22.5c0 12.406-10.093 22.5-22.5 22.5h-22.5v-187h22.5c12.407 0 22.5 10.094 22.5 22.5zm-30-78.5h15v15h-15zm-354.5-35h-15v-15h15zm-72 213.106-39.303-39.302 10.606-10.607 21.197 21.197v-171.894c0-15.163 12.336-27.5 27.5-27.5h22v15h-22c-6.893 0-12.5 5.607-12.5 12.5v171.894l21.197-21.197 10.606 10.607zm360 165.894h15v15h-15zm72-213.106 39.303 39.303-10.606 10.607-21.197-21.198v171.894c0 15.163-12.336 27.5-27.5 27.5h-22v-15h22c6.893 0 12.5-5.607 12.5-12.5v-171.894l-21.197 21.197-10.606-10.607zm-233-76.894h14.5v34.923l66.353-34.923h59.147c15.164 0 27.5-12.337 27.5-27.5v-70c0-15.163-12.336-27.5-27.5-27.5h-140c-15.164 0-27.5 12.337-27.5 27.5v70c0 15.163 12.336 27.5 27.5 27.5zm-12.5-97.5c0-6.893 5.607-12.5 12.5-12.5h140c6.893 0 12.5 5.607 12.5 12.5v70c0 6.893-5.607 12.5-12.5 12.5h-62.853l-47.647 25.077v-25.077h-29.5c-6.893 0-12.5-5.607-12.5-12.5zm142.5 27.5h-120v-15h120zm-30 30h-90v-15h90zm-174.5 350h7.557l18 10h44.862c17.332 0 32.312-11.759 36.427-28.595l10.358-42.375c2.018-8.256.166-16.825-5.082-23.511s-13.132-10.52-21.631-10.52h-13.491v-4.5c0-21.78-17.72-39.5-39.5-39.5h-5.604l-13 44h-18.896v-16h-75v127h75zm0-80h30.104l12.821-43.395c10.908 2.476 19.075 12.249 19.075 23.895v19.5h28.491c3.863 0 7.447 1.743 9.833 4.781 2.385 3.039 3.227 6.935 2.31 10.687l-10.358 42.375c-2.471 10.101-11.459 17.157-21.858 17.157h-40.975l-18-10h-11.443zm-15 81h-45v-97h45z" fill="url(#Outline_1_)"/></g></svg>