<svg id="Capa_1" enable-background="new 0 0 511.26 511.26" height="512" viewBox="0 0 511.26 511.26" width="512" xmlns="http://www.w3.org/2000/svg" xmlns:xlink="http://www.w3.org/1999/xlink"><linearGradient id="SVGID_1_" gradientUnits="userSpaceOnUse" x1="255.542" x2="255.542" y1="140.531" y2="370.531"><stop offset=".00000036422" stop-color="#a8abff"/><stop offset="1" stop-color="#fac8ff"/></linearGradient><linearGradient id="Outline_1_" gradientUnits="userSpaceOnUse" x1="255.63" x2="255.63" y1=".024" y2="511.236"><stop offset=".00000011981" stop-color="#174fa3"/><stop offset="1" stop-color="#b044af"/></linearGradient><g><g id="Filled_17_"><g fill="#fff"><path d="m20.722 490.351c-17.574-17.574-17.574-46.066 0-63.64l137.886-137.886 63.64 63.64-137.886 137.886c-17.574 17.574-46.066 17.574-63.64 0z"/><path d="m204.572 334.781 236.16-236.15 26.162-4.954 34.648-55.861-28.284-28.285-55.862 34.649-4.954 26.161-236.15 236.16z"/><path d="m445.362 395.854 51.577 51.577c13.197-32.509 6.612-71.17-19.757-97.539s-65.029-32.954-97.538-19.757l-198.706-198.705c13.197-32.509 6.612-71.169-19.757-97.538-26.369-26.37-65.03-32.955-97.538-19.757l51.577 51.577-9.192 40.305-40.305 9.192-51.578-51.577c-13.197 32.509-6.612 71.17 19.757 97.539s65.029 32.954 97.538 19.757l198.706 198.706c-13.197 32.509-6.612 71.169 19.757 97.538s65.03 32.954 97.539 19.757l-51.577-51.577 9.192-40.305z"/></g><circle cx="255.542" cy="255.531" fill="url(#SVGID_1_)" r="115"/><path d="m202.542 315.531h17l18 10h43c14.085 0 26.273-9.798 29.299-23.554l12.809-58.223c2.059-9.359-5.066-18.223-14.65-18.223h-39.459v-21c0-14.912-12.088-27-27-27l-13 48h-26v90z" fill="#fff"/></g><path id="Outline_17_" d="m381.528 321.414-14.704-14.704c17.099-37.031 14.705-80.806-7.456-116.113l85.031-85.027 27.13-5.138 39.521-63.716-36.693-36.692-63.717 39.521-5.137 27.129-85.028 85.031c-35.243-22.121-79.014-24.585-116.112-7.456l-14.704-14.704c12.251-35.229 3.416-74.366-23.175-100.956-51.298-51.301-114.906-17.298-116.143-17.149l56.644 56.645-7.223 31.668-31.668 7.223-56.644-56.645-4.254 10.48c-14.78 36.407-6.378 77.882 21.403 105.663 26.591 26.591 65.729 35.427 100.956 23.175l14.704 14.704c-13.565 29.379-14.706 62.669-4.103 92.318l-124.737 124.737c-20.47 20.47-20.47 53.776 0 74.246s53.776 20.47 74.246 0l124.738-124.738c29.63 10.596 62.922 9.47 92.318-4.103l14.705 14.704c-27.483 79.024 51.342 153.82 128.838 122.36l10.48-4.254-56.646-56.645 7.223-31.668 31.669-7.223 56.644 56.644 4.255-10.48c31.485-77.563-43.263-156.348-122.361-128.837zm37.853-247.405 4.771-25.194 48.006-29.776 19.876 19.876-29.776 48.007-25.194 4.771-86.554 86.552c-5.279-6.475-11.205-12.401-17.68-17.68zm-286.154 98.099c-.839.086-51.267 26.515-94.021-16.24-20.723-20.722-28.703-50.449-21.737-78.305l45.88 45.88 48.942-11.162 11.162-48.942-45.881-45.88c27.856-6.966 57.583 1.015 78.306 21.737 42.324 42.323 16.315 93.296 16.24 94.021l18.489 18.489c-15.709 9.86-29.031 23.182-38.891 38.891zm-54.169 312.94c-14.621 14.621-38.412 14.621-53.033 0s-14.621-38.412 0-53.033l120.55-120.55c11.709 22.718 30.315 41.324 53.033 53.033zm176.484-122.017c-59.276 0-107.5-48.224-107.5-107.5s48.224-107.5 107.5-107.5c59.275 0 107.5 48.224 107.5 107.5s-48.225 107.5-107.5 107.5zm238.073 70.47-45.88-45.88-48.942 11.162-11.162 48.942 45.881 45.88c-65.156 16.291-121.853-48.498-96.416-111.151l1.871-4.608-18.489-18.489c15.709-9.86 29.03-23.182 38.89-38.89l18.489 18.488 4.608-1.871c62.74-25.468 127.423 31.333 111.15 96.417zm-217.573-215.47v-13.5c0-19.023-15.477-34.5-34.5-34.5h-5.739l-13 48h-27.761v105h22.557l18 10h44.943c17.469 0 32.871-12.382 36.625-29.443 9.166-51.986 19.582-63.207 8.369-77.155-10.548-13.119-24.821-6.73-49.494-8.402zm26.474 82.335c-2.252 10.236-11.493 17.666-21.975 17.666h-41.057l-18-10h-11.443v-75h24.239l12.785-47.204c8.071 2.388 13.977 9.869 13.977 18.704v28.5c46.591.926 48.856-2.111 52.804 2.8 3.978 4.95.735 5.197-11.33 64.534zm-249.974 135.665c-12.407 0-22.5 10.093-22.5 22.5s10.093 22.5 22.5 22.5 22.5-10.093 22.5-22.5-10.093-22.5-22.5-22.5zm0 30c-4.136 0-7.5-3.364-7.5-7.5s3.364-7.5 7.5-7.5 7.5 3.364 7.5 7.5-3.364 7.5-7.5 7.5z" fill="url(#Outline_1_)"/></g></svg>