<svg id="Capa_1" enable-background="new 0 0 511.219 511.219" height="512" viewBox="0 0 511.219 511.219" width="512" xmlns="http://www.w3.org/2000/svg" xmlns:xlink="http://www.w3.org/1999/xlink"><linearGradient id="SVGID_1_" gradientUnits="userSpaceOnUse" x1="235.61" x2="235.61" y1="53.68" y2="461.936"><stop offset=".00000036422" stop-color="#a8abff"/><stop offset="1" stop-color="#fac8ff"/></linearGradient><linearGradient id="SVGID_2_" gradientUnits="userSpaceOnUse" x1="375.61" x2="375.61" y1="303.476" y2="503.476"><stop offset=".00000083866" stop-color="#96d1f3"/><stop offset="1" stop-color="#ccfff4"/></linearGradient><linearGradient id="Outline_1_" gradientUnits="userSpaceOnUse" x1="255.61" x2="255.61" y1="0" y2="511.219"><stop offset=".00000011981" stop-color="#174fa3"/><stop offset="1" stop-color="#b044af"/></linearGradient><g><g id="Filled_4_"><path d="m235.61 503.476c117.706-30.234 200-136.336 200-257.863v-131.852l-200-105.286-200 105.286v131.851c0 121.527 82.293 227.63 200 257.864z" fill="#fff"/><path d="m235.61 461.936c-94.714-28.956-160-116.472-160-216.323v-107.705l160-84.229 160 84.229v107.704c0 99.852-65.287 187.367-160 216.324z" fill="url(#SVGID_1_)"/><path d="m272.043 275.661c11.382-10.076 18.566-24.789 18.566-41.186v-51-14c0-16.569-13.431-30-30-30h-106v14c0 16.569 13.431 30 30 30h-4v51c0 16.397 7.184 31.109 18.566 41.186-42.844 15.036-73.566 55.834-73.566 103.814v8.022c27.763 34.486 65.656 60.881 110 74.438 44.344-13.557 82.237-39.952 110-74.438v-8.022c.001-47.98-30.722-88.778-73.566-103.814z" fill="#fff"/><circle cx="375.61" cy="403.476" fill="url(#SVGID_2_)" r="100"/></g><path id="Outline_4_" d="m220.11 233.476h-15v-15h15zm46-15h-15v15h15zm217 185c0 59.276-48.225 107.5-107.5 107.5-27.355 0-52.352-10.276-71.347-27.164-20.957 11.867-43.397 20.92-66.787 26.928l-1.866.479-1.866-.479c-121.075-31.099-205.634-140.124-205.634-265.128v-136.378l207.5-109.234 207.5 109.234v136.378c0 22.987-2.884 45.835-8.565 68.004 29.228 19.236 48.565 52.329 48.565 89.86zm-189.689 69.206c-5.39-6.39-10.049-13.414-13.849-20.944-13.32 7.115-27.33 12.955-41.77 17.37l-2.192.67-2.192-.67c-48.101-14.706-89.371-43.849-119.35-84.281-30.067-40.549-45.958-88.689-45.958-139.215v-112.231l167.5-88.177 167.5 88.177v112.231c0 17.717-2.006 35.349-5.961 52.532 8.332 1.701 16.312 4.375 23.826 7.887 4.735-19.741 7.135-40.021 7.135-60.419v-127.323l-192.5-101.338-192.5 101.338v127.324c0 117.512 79.056 220.083 192.5 250.112 20.162-5.339 39.559-13.074 57.811-23.043zm-25.311-69.206c0-36.826 18.617-69.382 46.929-88.763-11.024-13.473-25.483-24.094-41.614-30.519-10.508 8.011-23.612 12.782-37.815 12.782-14.205 0-27.311-4.772-37.819-12.785-38.856 15.414-64.681 53.192-64.681 95.285v5.791c26.097 31.5 61.218 55.732 102.499 68.814 13.185-4.184 25.978-9.631 38.138-16.227-3.654-10.799-5.637-22.361-5.637-34.378zm-80-169c0 26.191 21.309 47.5 47.5 47.5s47.5-21.309 47.5-47.5v-43.5h-95zm95-58.5v-6.5c0-12.407-10.094-22.5-22.5-22.5h-98.5v6.5c0 12.407 10.094 22.5 22.5 22.5zm44.993 131.085c14.334-7.092 30.461-11.086 47.506-11.086 2.214 0 4.411.075 6.592.208 3.919-16.523 5.908-33.504 5.908-50.571v-103.176l-152.5-80.28-152.5 80.28v103.177c0 44.15 12.938 85.641 35.78 120.405 4.679-40.572 30.272-76.023 67.42-93.195-8.26-10.596-13.2-23.902-13.2-38.347v-45.311c-15.068-4.867-26-19.022-26-35.689v-21.5h113.5c20.678 0 37.5 16.822 37.5 37.5v6.5 15 43.5c0 14.451-4.944 27.762-13.21 38.36 16.798 7.806 31.738 19.624 43.204 34.225zm140.007 96.415c0-51.005-41.495-92.5-92.5-92.5s-92.5 41.495-92.5 92.5 41.495 92.5 92.5 92.5 92.5-41.496 92.5-92.5zm-119.5 38.393-34.696-34.697-10.607 10.606 45.304 45.303 91.304-91.303-10.607-10.606z" fill="url(#Outline_1_)"/></g></svg>